<svg xmlns="http://www.w3.org/2000/svg" width="100%" height="100%" viewBox="0 0 1200 400"><defs><linearGradient id="bgGradient" x1="0%" x2="100%" y1="0%" y2="100%"><stop offset="0%" stop-color="#0f172a"/><stop offset="50%" stop-color="#1e1b4b"/><stop offset="100%" stop-color="#090d16"/></linearGradient><linearGradient id="cyanPurple" x1="0%" x2="100%" y1="0%" y2="0%"><stop offset="0%" stop-color="#06b6d4"/><stop offset="100%" stop-color="#a855f7"/></linearGradient><linearGradient id="pinkOrange" x1="0%" x2="100%" y1="0%" y2="100%"><stop offset="0%" stop-color="#ec4899"/><stop offset="100%" stop-color="#f97316"/></linearGradient><filter id="glow" width="140%" height="140%" x="-20%" y="-20%"><feGaussianBlur result="blur" stdDeviation="6"/><feComposite in="SourceGraphic" in2="blur" operator="over"/></filter></defs><style>.badge-text,.subtitle,.title{font-family:system-ui,-apple-system,sans-serif}.title{font-size:42px;font-weight:800;fill:#fff}.subtitle{font-size:20px;font-weight:500;fill:#94a3b8}.badge-text{font-size:14px;font-weight:600;fill:#38bdf8}.pulse-line{stroke-dasharray:8,8;animation:dash 30s linear infinite}</style><rect width="1200" height="400" fill="url(#bgGradient)" rx="16"/><g stroke="#fff" stroke-opacity=".04" stroke-width="1"><line x1="100" x2="100" y1="0" y2="400"/><line x1="300" x2="300" y1="0" y2="400"/><line x1="500" x2="500" y1="0" y2="400"/><line x1="700" x2="700" y1="0" y2="400"/><line x1="900" x2="900" y1="0" y2="400"/><line x1="1100" x2="1100" y1="0" y2="400"/><line x1="0" x2="1200" y1="100" y2="100"/><line x1="0" x2="1200" y1="200" y2="200"/><line x1="0" x2="1200" y1="300" y2="300"/></g><g fill="none" stroke="url(#cyanPurple)" stroke-opacity=".25" stroke-width="2"><path d="M 100,80 Q 350,30 600,80 T 1100,80" class="pulse-line"/><path d="M 50,320 Q 400,370 750,320 T 1150,320" class="pulse-line"/><path d="M 150,200 C 400,50 800,350 1050,200" class="pulse-line"/></g><g filter="url(#glow)"><circle cx="1050" cy="90" r="8" fill="#06b6d4"/><circle cx="1050" cy="90" r="18" fill="none" stroke="#06b6d4" stroke-opacity=".5" stroke-width="1.5"/><rect width="50" height="30" x="1110" y="75" fill="#1e293b" stroke="#3b82f6" stroke-width="1.5" rx="6"/><text x="1135" y="95" fill="#38bdf8" font-family="sans-serif" font-size="11" text-anchor="middle">SAGA</text><line x1="1058" x2="1110" y1="90" y2="90" stroke="#38bdf8" stroke-dasharray="3 3" stroke-width="1.5"/><circle cx="120" cy="310" r="8" fill="#a855f7"/><circle cx="120" cy="310" r="18" fill="none" stroke="#a855f7" stroke-opacity=".5" stroke-width="1.5"/><rect width="64" height="30" x="170" y="295" fill="#1e293b" stroke="#a855f7" stroke-width="1.5" rx="6"/><text x="202" y="315" fill="#c084fc" font-family="sans-serif" font-size="11" text-anchor="middle">STATE</text><line x1="128" x2="170" y1="310" y2="310" stroke="#c084fc" stroke-dasharray="3 3" stroke-width="1.5"/></g><rect width="1040" height="240" x="80" y="80" fill="#0f172a" fill-opacity=".85" stroke="url(#cyanPurple)" stroke-width="2" filter="url(#glow)" rx="20"/><rect width="360" height="32" x="420" y="110" fill="#1e293b" stroke="#06b6d4" stroke-width="1" rx="16"/><text x="600" y="131" class="badge-text" text-anchor="middle">⚡ DURABLE EXECUTION &amp; ORCHESTRATION 🔄</text><text x="600" y="195" class="title" text-anchor="middle">Awesome Distributed Workflow Coordination</text><text x="600" y="240" class="subtitle" text-anchor="middle">Curated Directory of Temporal, Cadence, Step Functions, Airflow, Conductor &amp; Saga Engines</text><text x="600" y="275" fill="#e2e8f0" font-family="sans-serif" font-size="15" font-weight="600" text-anchor="middle">Enterprise Platforms • Open Source Engines • Event-Driven State Machines</text></svg>